<?xml version="1.0" encoding="UTF-8"?>
<svg xmlns="http://www.w3.org/2000/svg" width="800.000" height="600.000" viewBox="0.0 0.0 800.000 600.000" version="1.1">
  <title>Produce by Acme CAD Converter</title>
  <desc>Produce by Acme CAD Converter</desc>
<polyline points="156.17,373.04 156.17,383.43" style="fill:none;stroke:black;stroke-width:0.5"/>
<polyline points="156.17,383.43 160.33,383.43" style="fill:none;stroke:black;stroke-width:0.5"/>
<polyline points="160.33,383.43 160.33,393.83" style="fill:none;stroke:black;stroke-width:0.5"/>
<polyline points="160.33,393.83 156.17,393.83" style="fill:none;stroke:black;stroke-width:0.5"/>
<polyline points="156.17,393.83 156.17,404.23" style="fill:none;stroke:black;stroke-width:0.5"/>
<polyline points="156.17,404.23 160.33,404.23" style="fill:none;stroke:black;stroke-width:0.5"/>
<polyline points="160.33,404.23 160.33,414.63" style="fill:none;stroke:black;stroke-width:0.5"/>
<polyline points="160.33,414.63 156.17,414.63" style="fill:none;stroke:black;stroke-width:0.5"/>
<polyline points="156.17,414.63 156.17,425.03" style="fill:none;stroke:black;stroke-width:0.5"/>
<polyline points="156.17,425.03 171.77,425.03" style="fill:none;stroke:black;stroke-width:0.5"/>
<polyline points="171.77,425.03 171.77,420.87" style="fill:none;stroke:black;stroke-width:0.5"/>
<polyline points="171.77,420.87 182.16,420.87" style="fill:none;stroke:black;stroke-width:0.5"/>
<polyline points="182.16,420.87 182.16,425.03" style="fill:none;stroke:black;stroke-width:0.5"/>
<polyline points="182.16,425.03 192.56,425.03" style="fill:none;stroke:black;stroke-width:0.5"/>
<polyline points="192.56,425.03 192.56,420.87" style="fill:none;stroke:black;stroke-width:0.5"/>
<polyline points="192.56,420.87 202.96,420.87" style="fill:none;stroke:black;stroke-width:0.5"/>
<polyline points="202.96,420.87 202.96,425.03" style="fill:none;stroke:black;stroke-width:0.5"/>
<polyline points="202.96,425.03 213.36,425.03" style="fill:none;stroke:black;stroke-width:0.5"/>
<polyline points="213.36,425.03 213.36,420.87" style="fill:none;stroke:black;stroke-width:0.5"/>
<polyline points="213.36,420.87 223.76,420.87" style="fill:none;stroke:black;stroke-width:0.5"/>
<polyline points="223.76,420.87 223.76,425.03" style="fill:none;stroke:black;stroke-width:0.5"/>
<polyline points="223.76,425.03 234.15,425.03" style="fill:none;stroke:black;stroke-width:0.5"/>
<polyline points="234.15,425.03 234.15,420.87" style="fill:none;stroke:black;stroke-width:0.5"/>
<polyline points="234.15,420.87 244.55,420.87" style="fill:none;stroke:black;stroke-width:0.5"/>
<polyline points="244.55,420.87 244.55,425.03" style="fill:none;stroke:black;stroke-width:0.5"/>
<polyline points="244.55,425.03 254.95,425.03" style="fill:none;stroke:black;stroke-width:0.5"/>
<polyline points="254.95,425.03 254.95,420.87" style="fill:none;stroke:black;stroke-width:0.5"/>
<polyline points="254.95,420.87 265.35,420.87" style="fill:none;stroke:black;stroke-width:0.5"/>
<polyline points="265.35,420.87 265.35,425.03" style="fill:none;stroke:black;stroke-width:0.5"/>
<polyline points="265.35,425.03 275.75,425.03" style="fill:none;stroke:black;stroke-width:0.5"/>
<polyline points="275.75,425.03 275.75,420.87" style="fill:none;stroke:black;stroke-width:0.5"/>
<polyline points="275.75,420.87 286.14,420.87" style="fill:none;stroke:black;stroke-width:0.5"/>
<polyline points="286.14,420.87 286.14,425.03" style="fill:none;stroke:black;stroke-width:0.5"/>
<polyline points="286.14,425.03 296.54,425.03" style="fill:none;stroke:black;stroke-width:0.5"/>
<polyline points="296.54,425.03 296.54,420.87" style="fill:none;stroke:black;stroke-width:0.5"/>
<polyline points="296.54,420.87 306.94,420.87" style="fill:none;stroke:black;stroke-width:0.5"/>
<polyline points="306.94,420.87 306.94,425.03" style="fill:none;stroke:black;stroke-width:0.5"/>
<polyline points="306.94,425.03 317.34,425.03" style="fill:none;stroke:black;stroke-width:0.5"/>
<polyline points="317.34,425.03 322.54,425.03" style="fill:none;stroke:black;stroke-width:0.5"/>
<polyline points="322.54,425.03 322.54,414.63" style="fill:none;stroke:black;stroke-width:0.5"/>
<polyline points="322.54,414.63 318.38,414.63" style="fill:none;stroke:black;stroke-width:0.5"/>
<polyline points="318.38,414.63 318.38,404.23" style="fill:none;stroke:black;stroke-width:0.5"/>
<polyline points="318.38,404.23 322.54,404.23" style="fill:none;stroke:black;stroke-width:0.5"/>
<polyline points="322.54,404.23 322.54,393.83" style="fill:none;stroke:black;stroke-width:0.5"/>
<polyline points="322.54,393.83 318.38,393.83" style="fill:none;stroke:black;stroke-width:0.5"/>
<polyline points="318.38,393.83 318.38,383.43" style="fill:none;stroke:black;stroke-width:0.5"/>
<polyline points="318.38,383.43 322.54,383.43" style="fill:none;stroke:black;stroke-width:0.5"/>
<polyline points="322.54,383.43 322.54,373.04" style="fill:none;stroke:black;stroke-width:0.5"/>
<polyline points="322.54,373.04 306.94,373.04" style="fill:none;stroke:black;stroke-width:0.5"/>
<polyline points="306.94,373.04 306.94,377.2" style="fill:none;stroke:black;stroke-width:0.5"/>
<polyline points="306.94,377.2 296.54,377.2" style="fill:none;stroke:black;stroke-width:0.5"/>
<polyline points="296.54,377.2 296.54,373.04" style="fill:none;stroke:black;stroke-width:0.5"/>
<polyline points="296.54,373.04 286.14,373.04" style="fill:none;stroke:black;stroke-width:0.5"/>
<polyline points="286.14,373.04 286.14,377.2" style="fill:none;stroke:black;stroke-width:0.5"/>
<polyline points="286.14,377.2 275.75,377.2" style="fill:none;stroke:black;stroke-width:0.5"/>
<polyline points="275.75,377.2 275.75,373.04" style="fill:none;stroke:black;stroke-width:0.5"/>
<polyline points="275.75,373.04 265.35,373.04" style="fill:none;stroke:black;stroke-width:0.5"/>
<polyline points="265.35,373.04 265.35,377.2" style="fill:none;stroke:black;stroke-width:0.5"/>
<polyline points="265.35,377.2 254.95,377.2" style="fill:none;stroke:black;stroke-width:0.5"/>
<polyline points="254.95,377.2 254.95,373.04" style="fill:none;stroke:black;stroke-width:0.5"/>
<polyline points="254.95,373.04 244.55,373.04" style="fill:none;stroke:black;stroke-width:0.5"/>
<polyline points="244.55,373.04 244.55,377.2" style="fill:none;stroke:black;stroke-width:0.5"/>
<polyline points="244.55,377.2 234.15,377.2" style="fill:none;stroke:black;stroke-width:0.5"/>
<polyline points="234.15,377.2 234.15,373.04" style="fill:none;stroke:black;stroke-width:0.5"/>
<polyline points="234.15,373.04 223.76,373.04" style="fill:none;stroke:black;stroke-width:0.5"/>
<polyline points="223.76,373.04 223.76,377.2" style="fill:none;stroke:black;stroke-width:0.5"/>
<polyline points="223.76,377.2 213.36,377.2" style="fill:none;stroke:black;stroke-width:0.5"/>
<polyline points="213.36,377.2 213.36,373.04" style="fill:none;stroke:black;stroke-width:0.5"/>
<polyline points="213.36,373.04 202.96,373.04" style="fill:none;stroke:black;stroke-width:0.5"/>
<polyline points="202.96,373.04 202.96,377.2" style="fill:none;stroke:black;stroke-width:0.5"/>
<polyline points="202.96,377.2 192.56,377.2" style="fill:none;stroke:black;stroke-width:0.5"/>
<polyline points="192.56,377.2 192.56,373.04" style="fill:none;stroke:black;stroke-width:0.5"/>
<polyline points="192.56,373.04 182.16,373.04" style="fill:none;stroke:black;stroke-width:0.5"/>
<polyline points="182.16,373.04 182.16,377.2" style="fill:none;stroke:black;stroke-width:0.5"/>
<polyline points="182.16,377.2 171.77,377.2" style="fill:none;stroke:black;stroke-width:0.5"/>
<polyline points="171.77,377.2 171.77,373.04" style="fill:none;stroke:black;stroke-width:0.5"/>
<polyline points="171.77,373.04 161.37,373.04" style="fill:none;stroke:black;stroke-width:0.5"/>
<polyline points="161.37,373.04 156.17,373.04" style="fill:none;stroke:black;stroke-width:0.5"/>
<polyline points="332.93,373.04 332.93,383.43" style="fill:none;stroke:black;stroke-width:0.5"/>
<polyline points="332.93,383.43 328.78,383.43" style="fill:none;stroke:black;stroke-width:0.5"/>
<polyline points="328.78,383.43 328.78,393.83" style="fill:none;stroke:black;stroke-width:0.5"/>
<polyline points="328.78,393.83 332.93,393.83" style="fill:none;stroke:black;stroke-width:0.5"/>
<polyline points="332.93,393.83 332.93,404.23" style="fill:none;stroke:black;stroke-width:0.5"/>
<polyline points="332.93,404.23 328.78,404.23" style="fill:none;stroke:black;stroke-width:0.5"/>
<polyline points="328.78,404.23 328.78,414.63" style="fill:none;stroke:black;stroke-width:0.5"/>
<polyline points="328.78,414.63 332.93,414.63" style="fill:none;stroke:black;stroke-width:0.5"/>
<polyline points="332.93,414.63 332.93,425.03" style="fill:none;stroke:black;stroke-width:0.5"/>
<polyline points="332.93,425.03 344.37,425.03" style="fill:none;stroke:black;stroke-width:0.5"/>
<polyline points="344.37,425.03 344.37,420.87" style="fill:none;stroke:black;stroke-width:0.5"/>
<polyline points="344.37,420.87 354.77,420.87" style="fill:none;stroke:black;stroke-width:0.5"/>
<polyline points="354.77,420.87 354.77,425.03" style="fill:none;stroke:black;stroke-width:0.5"/>
<polyline points="354.77,425.03 365.17,425.03" style="fill:none;stroke:black;stroke-width:0.5"/>
<polyline points="365.17,425.03 365.17,420.87" style="fill:none;stroke:black;stroke-width:0.5"/>
<polyline points="365.17,420.87 375.57,420.87" style="fill:none;stroke:black;stroke-width:0.5"/>
<polyline points="375.57,420.87 375.57,425.03" style="fill:none;stroke:black;stroke-width:0.5"/>
<polyline points="375.57,425.03 385.96,425.03" style="fill:none;stroke:black;stroke-width:0.5"/>
<polyline points="385.96,425.03 385.96,420.87" style="fill:none;stroke:black;stroke-width:0.5"/>
<polyline points="385.96,420.87 396.36,420.87" style="fill:none;stroke:black;stroke-width:0.5"/>
<polyline points="396.36,420.87 396.36,425.03" style="fill:none;stroke:black;stroke-width:0.5"/>
<polyline points="396.36,425.03 406.76,425.03" style="fill:none;stroke:black;stroke-width:0.5"/>
<polyline points="406.76,425.03 406.76,420.87" style="fill:none;stroke:black;stroke-width:0.5"/>
<polyline points="406.76,420.87 417.16,420.87" style="fill:none;stroke:black;stroke-width:0.5"/>
<polyline points="417.16,420.87 417.16,425.03" style="fill:none;stroke:black;stroke-width:0.5"/>
<polyline points="417.16,425.03 427.56,425.03" style="fill:none;stroke:black;stroke-width:0.5"/>
<polyline points="427.56,425.03 427.56,420.87" style="fill:none;stroke:black;stroke-width:0.5"/>
<polyline points="427.56,420.87 437.95,420.87" style="fill:none;stroke:black;stroke-width:0.5"/>
<polyline points="437.95,420.87 437.95,425.03" style="fill:none;stroke:black;stroke-width:0.5"/>
<polyline points="437.95,425.03 448.35,425.03" style="fill:none;stroke:black;stroke-width:0.5"/>
<polyline points="448.35,425.03 449.39,425.03" style="fill:none;stroke:black;stroke-width:0.5"/>
<polyline points="449.39,425.03 449.39,414.63" style="fill:none;stroke:black;stroke-width:0.5"/>
<polyline points="449.39,414.63 453.55,414.63" style="fill:none;stroke:black;stroke-width:0.5"/>
<polyline points="453.55,414.63 453.55,404.23" style="fill:none;stroke:black;stroke-width:0.5"/>
<polyline points="453.55,404.23 449.39,404.23" style="fill:none;stroke:black;stroke-width:0.5"/>
<polyline points="449.39,404.23 449.39,393.83" style="fill:none;stroke:black;stroke-width:0.5"/>
<polyline points="449.39,393.83 453.55,393.83" style="fill:none;stroke:black;stroke-width:0.5"/>
<polyline points="453.55,393.83 453.55,383.43" style="fill:none;stroke:black;stroke-width:0.5"/>
<polyline points="453.55,383.43 449.39,383.43" style="fill:none;stroke:black;stroke-width:0.5"/>
<polyline points="449.39,383.43 449.39,373.04" style="fill:none;stroke:black;stroke-width:0.5"/>
<polyline points="449.39,373.04 437.95,373.04" style="fill:none;stroke:black;stroke-width:0.5"/>
<polyline points="437.95,373.04 437.95,377.2" style="fill:none;stroke:black;stroke-width:0.5"/>
<polyline points="437.95,377.2 427.56,377.2" style="fill:none;stroke:black;stroke-width:0.5"/>
<polyline points="427.56,377.2 427.56,373.04" style="fill:none;stroke:black;stroke-width:0.5"/>
<polyline points="427.56,373.04 417.16,373.04" style="fill:none;stroke:black;stroke-width:0.5"/>
<polyline points="417.16,373.04 417.16,377.2" style="fill:none;stroke:black;stroke-width:0.5"/>
<polyline points="417.16,377.2 406.76,377.2" style="fill:none;stroke:black;stroke-width:0.5"/>
<polyline points="406.76,377.2 406.76,373.04" style="fill:none;stroke:black;stroke-width:0.5"/>
<polyline points="406.76,373.04 396.36,373.04" style="fill:none;stroke:black;stroke-width:0.5"/>
<polyline points="396.36,373.04 396.36,377.2" style="fill:none;stroke:black;stroke-width:0.5"/>
<polyline points="396.36,377.2 385.96,377.2" style="fill:none;stroke:black;stroke-width:0.5"/>
<polyline points="385.96,377.2 385.96,373.04" style="fill:none;stroke:black;stroke-width:0.5"/>
<polyline points="385.96,373.04 375.57,373.04" style="fill:none;stroke:black;stroke-width:0.5"/>
<polyline points="375.57,373.04 375.57,377.2" style="fill:none;stroke:black;stroke-width:0.5"/>
<polyline points="375.57,377.2 365.17,377.2" style="fill:none;stroke:black;stroke-width:0.5"/>
<polyline points="365.17,377.2 365.17,373.04" style="fill:none;stroke:black;stroke-width:0.5"/>
<polyline points="365.17,373.04 354.77,373.04" style="fill:none;stroke:black;stroke-width:0.5"/>
<polyline points="354.77,373.04 354.77,377.2" style="fill:none;stroke:black;stroke-width:0.5"/>
<polyline points="354.77,377.2 344.37,377.2" style="fill:none;stroke:black;stroke-width:0.5"/>
<polyline points="344.37,377.2 344.37,373.04" style="fill:none;stroke:black;stroke-width:0.5"/>
<polyline points="344.37,373.04 333.97,373.04" style="fill:none;stroke:black;stroke-width:0.5"/>
<polyline points="333.97,373.04 332.93,373.04" style="fill:none;stroke:black;stroke-width:0.5"/>
<polyline points="463.95,304.41 463.95,315.85" style="fill:none;stroke:black;stroke-width:0.5"/>
<polyline points="463.95,315.85 459.79,315.85" style="fill:none;stroke:black;stroke-width:0.5"/>
<polyline points="459.79,315.85 459.79,326.25" style="fill:none;stroke:black;stroke-width:0.5"/>
<polyline points="459.79,326.25 463.95,326.25" style="fill:none;stroke:black;stroke-width:0.5"/>
<polyline points="463.95,326.25 463.95,336.64" style="fill:none;stroke:black;stroke-width:0.5"/>
<polyline points="463.95,336.64 459.79,336.64" style="fill:none;stroke:black;stroke-width:0.5"/>
<polyline points="459.79,336.64 459.79,347.04" style="fill:none;stroke:black;stroke-width:0.5"/>
<polyline points="459.79,347.04 463.95,347.04" style="fill:none;stroke:black;stroke-width:0.5"/>
<polyline points="463.95,347.04 463.95,357.44" style="fill:none;stroke:black;stroke-width:0.5"/>
<polyline points="463.95,357.44 459.79,357.44" style="fill:none;stroke:black;stroke-width:0.5"/>
<polyline points="459.79,357.44 459.79,367.84" style="fill:none;stroke:black;stroke-width:0.5"/>
<polyline points="459.79,367.84 463.95,367.84" style="fill:none;stroke:black;stroke-width:0.5"/>
<polyline points="463.95,367.84 463.95,378.24" style="fill:none;stroke:black;stroke-width:0.5"/>
<polyline points="463.95,378.24 459.79,378.24" style="fill:none;stroke:black;stroke-width:0.5"/>
<polyline points="459.79,378.24 459.79,388.63" style="fill:none;stroke:black;stroke-width:0.5"/>
<polyline points="459.79,388.63 463.95,388.63" style="fill:none;stroke:black;stroke-width:0.5"/>
<polyline points="463.95,388.63 463.95,399.03" style="fill:none;stroke:black;stroke-width:0.5"/>
<polyline points="463.95,399.03 459.79,399.03" style="fill:none;stroke:black;stroke-width:0.5"/>
<polyline points="459.79,399.03 459.79,409.43" style="fill:none;stroke:black;stroke-width:0.5"/>
<polyline points="459.79,409.43 463.95,409.43" style="fill:none;stroke:black;stroke-width:0.5"/>
<polyline points="463.95,409.43 463.95,419.83" style="fill:none;stroke:black;stroke-width:0.5"/>
<polyline points="463.95,419.83 463.95,420.87" style="fill:none;stroke:black;stroke-width:0.5"/>
<polyline points="463.95,420.87 475.39,420.87" style="fill:none;stroke:black;stroke-width:0.5"/>
<polyline points="475.39,420.87 475.39,425.03" style="fill:none;stroke:black;stroke-width:0.5"/>
<polyline points="475.39,425.03 485.78,425.03" style="fill:none;stroke:black;stroke-width:0.5"/>
<polyline points="485.78,425.03 485.78,420.87" style="fill:none;stroke:black;stroke-width:0.5"/>
<polyline points="485.78,420.87 496.18,420.87" style="fill:none;stroke:black;stroke-width:0.5"/>
<polyline points="496.18,420.87 496.18,425.03" style="fill:none;stroke:black;stroke-width:0.5"/>
<polyline points="496.18,425.03 506.58,425.03" style="fill:none;stroke:black;stroke-width:0.5"/>
<polyline points="506.58,425.03 506.58,420.87" style="fill:none;stroke:black;stroke-width:0.5"/>
<polyline points="506.58,420.87 516.98,420.87" style="fill:none;stroke:black;stroke-width:0.5"/>
<polyline points="516.98,420.87 516.98,425.03" style="fill:none;stroke:black;stroke-width:0.5"/>
<polyline points="516.98,425.03 527.38,425.03" style="fill:none;stroke:black;stroke-width:0.5"/>
<polyline points="527.38,425.03 527.38,420.87" style="fill:none;stroke:black;stroke-width:0.5"/>
<polyline points="527.38,420.87 537.77,420.87" style="fill:none;stroke:black;stroke-width:0.5"/>
<polyline points="537.77,420.87 537.77,425.03" style="fill:none;stroke:black;stroke-width:0.5"/>
<polyline points="537.77,425.03 548.17,425.03" style="fill:none;stroke:black;stroke-width:0.5"/>
<polyline points="548.17,425.03 548.17,420.87" style="fill:none;stroke:black;stroke-width:0.5"/>
<polyline points="548.17,420.87 558.57,420.87" style="fill:none;stroke:black;stroke-width:0.5"/>
<polyline points="558.57,420.87 558.57,425.03" style="fill:none;stroke:black;stroke-width:0.5"/>
<polyline points="558.57,425.03 568.97,425.03" style="fill:none;stroke:black;stroke-width:0.5"/>
<polyline points="568.97,425.03 568.97,420.87" style="fill:none;stroke:black;stroke-width:0.5"/>
<polyline points="568.97,420.87 579.37,420.87" style="fill:none;stroke:black;stroke-width:0.5"/>
<polyline points="579.37,420.87 579.37,425.03" style="fill:none;stroke:black;stroke-width:0.5"/>
<polyline points="579.37,425.03 589.76,425.03" style="fill:none;stroke:black;stroke-width:0.5"/>
<polyline points="589.76,425.03 589.76,420.87" style="fill:none;stroke:black;stroke-width:0.5"/>
<polyline points="589.76,420.87 600.16,420.87" style="fill:none;stroke:black;stroke-width:0.5"/>
<polyline points="600.16,420.87 600.16,425.03" style="fill:none;stroke:black;stroke-width:0.5"/>
<polyline points="600.16,425.03 610.56,425.03" style="fill:none;stroke:black;stroke-width:0.5"/>
<polyline points="610.56,425.03 610.56,420.87" style="fill:none;stroke:black;stroke-width:0.5"/>
<polyline points="610.56,420.87 620.96,420.87" style="fill:none;stroke:black;stroke-width:0.5"/>
<polyline points="620.96,420.87 622,420.87" style="fill:none;stroke:black;stroke-width:0.5"/>
<polyline points="622,420.87 622,409.43" style="fill:none;stroke:black;stroke-width:0.5"/>
<polyline points="622,409.43 626.16,409.43" style="fill:none;stroke:black;stroke-width:0.5"/>
<polyline points="626.16,409.43 626.16,399.03" style="fill:none;stroke:black;stroke-width:0.5"/>
<polyline points="626.16,399.03 622,399.03" style="fill:none;stroke:black;stroke-width:0.5"/>
<polyline points="622,399.03 622,388.63" style="fill:none;stroke:black;stroke-width:0.5"/>
<polyline points="622,388.63 626.16,388.63" style="fill:none;stroke:black;stroke-width:0.5"/>
<polyline points="626.16,388.63 626.16,378.24" style="fill:none;stroke:black;stroke-width:0.5"/>
<polyline points="626.16,378.24 622,378.24" style="fill:none;stroke:black;stroke-width:0.5"/>
<polyline points="622,378.24 622,367.84" style="fill:none;stroke:black;stroke-width:0.5"/>
<polyline points="622,367.84 626.16,367.84" style="fill:none;stroke:black;stroke-width:0.5"/>
<polyline points="626.16,367.84 626.16,357.44" style="fill:none;stroke:black;stroke-width:0.5"/>
<polyline points="626.16,357.44 622,357.44" style="fill:none;stroke:black;stroke-width:0.5"/>
<polyline points="622,357.44 622,347.04" style="fill:none;stroke:black;stroke-width:0.5"/>
<polyline points="622,347.04 626.16,347.04" style="fill:none;stroke:black;stroke-width:0.5"/>
<polyline points="626.16,347.04 626.16,336.64" style="fill:none;stroke:black;stroke-width:0.5"/>
<polyline points="626.16,336.64 622,336.64" style="fill:none;stroke:black;stroke-width:0.5"/>
<polyline points="622,336.64 622,326.25" style="fill:none;stroke:black;stroke-width:0.5"/>
<polyline points="622,326.25 626.16,326.25" style="fill:none;stroke:black;stroke-width:0.5"/>
<polyline points="626.16,326.25 626.16,315.85" style="fill:none;stroke:black;stroke-width:0.5"/>
<polyline points="626.16,315.85 622,315.85" style="fill:none;stroke:black;stroke-width:0.5"/>
<polyline points="622,315.85 622,305.45" style="fill:none;stroke:black;stroke-width:0.5"/>
<polyline points="622,305.45 622,304.41" style="fill:none;stroke:black;stroke-width:0.5"/>
<polyline points="622,304.41 610.56,304.41" style="fill:none;stroke:black;stroke-width:0.5"/>
<polyline points="610.56,304.41 610.56,300.25" style="fill:none;stroke:black;stroke-width:0.5"/>
<polyline points="610.56,300.25 600.16,300.25" style="fill:none;stroke:black;stroke-width:0.5"/>
<polyline points="600.16,300.25 600.16,304.41" style="fill:none;stroke:black;stroke-width:0.5"/>
<polyline points="600.16,304.41 589.76,304.41" style="fill:none;stroke:black;stroke-width:0.5"/>
<polyline points="589.76,304.41 589.76,300.25" style="fill:none;stroke:black;stroke-width:0.5"/>
<polyline points="589.76,300.25 579.37,300.25" style="fill:none;stroke:black;stroke-width:0.5"/>
<polyline points="579.37,300.25 579.37,304.41" style="fill:none;stroke:black;stroke-width:0.5"/>
<polyline points="579.37,304.41 568.97,304.41" style="fill:none;stroke:black;stroke-width:0.5"/>
<polyline points="568.97,304.41 568.97,300.25" style="fill:none;stroke:black;stroke-width:0.5"/>
<polyline points="568.97,300.25 558.57,300.25" style="fill:none;stroke:black;stroke-width:0.5"/>
<polyline points="558.57,300.25 558.57,304.41" style="fill:none;stroke:black;stroke-width:0.5"/>
<polyline points="558.57,304.41 548.17,304.41" style="fill:none;stroke:black;stroke-width:0.5"/>
<polyline points="548.17,304.41 548.17,300.25" style="fill:none;stroke:black;stroke-width:0.5"/>
<polyline points="548.17,300.25 537.77,300.25" style="fill:none;stroke:black;stroke-width:0.5"/>
<polyline points="537.77,300.25 537.77,304.41" style="fill:none;stroke:black;stroke-width:0.5"/>
<polyline points="537.77,304.41 527.38,304.41" style="fill:none;stroke:black;stroke-width:0.5"/>
<polyline points="527.38,304.41 527.38,300.25" style="fill:none;stroke:black;stroke-width:0.5"/>
<polyline points="527.38,300.25 516.98,300.25" style="fill:none;stroke:black;stroke-width:0.5"/>
<polyline points="516.98,300.25 516.98,304.41" style="fill:none;stroke:black;stroke-width:0.5"/>
<polyline points="516.98,304.41 506.58,304.41" style="fill:none;stroke:black;stroke-width:0.5"/>
<polyline points="506.58,304.41 506.58,300.25" style="fill:none;stroke:black;stroke-width:0.5"/>
<polyline points="506.58,300.25 496.18,300.25" style="fill:none;stroke:black;stroke-width:0.5"/>
<polyline points="496.18,300.25 496.18,304.41" style="fill:none;stroke:black;stroke-width:0.5"/>
<polyline points="496.18,304.41 485.78,304.41" style="fill:none;stroke:black;stroke-width:0.5"/>
<polyline points="485.78,304.41 485.78,300.25" style="fill:none;stroke:black;stroke-width:0.5"/>
<polyline points="485.78,300.25 475.39,300.25" style="fill:none;stroke:black;stroke-width:0.5"/>
<polyline points="475.39,300.25 475.39,304.41" style="fill:none;stroke:black;stroke-width:0.5"/>
<polyline points="475.39,304.41 464.99,304.41" style="fill:none;stroke:black;stroke-width:0.5"/>
<polyline points="464.99,304.41 463.95,304.41" style="fill:none;stroke:black;stroke-width:0.5"/>
<polyline points="156.17,314.81 156.17,325.21" style="fill:none;stroke:black;stroke-width:0.5"/>
<polyline points="156.17,325.21 160.33,325.21" style="fill:none;stroke:black;stroke-width:0.5"/>
<polyline points="160.33,325.21 160.33,335.6" style="fill:none;stroke:black;stroke-width:0.5"/>
<polyline points="160.33,335.6 156.17,335.6" style="fill:none;stroke:black;stroke-width:0.5"/>
<polyline points="156.17,335.6 156.17,346" style="fill:none;stroke:black;stroke-width:0.5"/>
<polyline points="156.17,346 160.33,346" style="fill:none;stroke:black;stroke-width:0.5"/>
<polyline points="160.33,346 160.33,356.4" style="fill:none;stroke:black;stroke-width:0.5"/>
<polyline points="160.33,356.4 156.17,356.4" style="fill:none;stroke:black;stroke-width:0.5"/>
<polyline points="156.17,356.4 156.17,366.8" style="fill:none;stroke:black;stroke-width:0.5"/>
<polyline points="156.17,366.8 171.77,366.8" style="fill:none;stroke:black;stroke-width:0.5"/>
<polyline points="171.77,366.8 171.77,362.64" style="fill:none;stroke:black;stroke-width:0.5"/>
<polyline points="171.77,362.64 182.16,362.64" style="fill:none;stroke:black;stroke-width:0.5"/>
<polyline points="182.16,362.64 182.16,366.8" style="fill:none;stroke:black;stroke-width:0.5"/>
<polyline points="182.16,366.8 192.56,366.8" style="fill:none;stroke:black;stroke-width:0.5"/>
<polyline points="192.56,366.8 192.56,362.64" style="fill:none;stroke:black;stroke-width:0.5"/>
<polyline points="192.56,362.64 202.96,362.64" style="fill:none;stroke:black;stroke-width:0.5"/>
<polyline points="202.96,362.64 202.96,366.8" style="fill:none;stroke:black;stroke-width:0.5"/>
<polyline points="202.96,366.8 213.36,366.8" style="fill:none;stroke:black;stroke-width:0.5"/>
<polyline points="213.36,366.8 213.36,362.64" style="fill:none;stroke:black;stroke-width:0.5"/>
<polyline points="213.36,362.64 223.76,362.64" style="fill:none;stroke:black;stroke-width:0.5"/>
<polyline points="223.76,362.64 223.76,366.8" style="fill:none;stroke:black;stroke-width:0.5"/>
<polyline points="223.76,366.8 234.15,366.8" style="fill:none;stroke:black;stroke-width:0.5"/>
<polyline points="234.15,366.8 234.15,362.64" style="fill:none;stroke:black;stroke-width:0.5"/>
<polyline points="234.15,362.64 244.55,362.64" style="fill:none;stroke:black;stroke-width:0.5"/>
<polyline points="244.55,362.64 244.55,366.8" style="fill:none;stroke:black;stroke-width:0.5"/>
<polyline points="244.55,366.8 254.95,366.8" style="fill:none;stroke:black;stroke-width:0.5"/>
<polyline points="254.95,366.8 254.95,362.64" style="fill:none;stroke:black;stroke-width:0.5"/>
<polyline points="254.95,362.64 265.35,362.64" style="fill:none;stroke:black;stroke-width:0.5"/>
<polyline points="265.35,362.64 265.35,366.8" style="fill:none;stroke:black;stroke-width:0.5"/>
<polyline points="265.35,366.8 275.75,366.8" style="fill:none;stroke:black;stroke-width:0.5"/>
<polyline points="275.75,366.8 275.75,362.64" style="fill:none;stroke:black;stroke-width:0.5"/>
<polyline points="275.75,362.64 286.14,362.64" style="fill:none;stroke:black;stroke-width:0.5"/>
<polyline points="286.14,362.64 286.14,366.8" style="fill:none;stroke:black;stroke-width:0.5"/>
<polyline points="286.14,366.8 296.54,366.8" style="fill:none;stroke:black;stroke-width:0.5"/>
<polyline points="296.54,366.8 296.54,362.64" style="fill:none;stroke:black;stroke-width:0.5"/>
<polyline points="296.54,362.64 306.94,362.64" style="fill:none;stroke:black;stroke-width:0.5"/>
<polyline points="306.94,362.64 306.94,366.8" style="fill:none;stroke:black;stroke-width:0.5"/>
<polyline points="306.94,366.8 317.34,366.8" style="fill:none;stroke:black;stroke-width:0.5"/>
<polyline points="317.34,366.8 322.54,366.8" style="fill:none;stroke:black;stroke-width:0.5"/>
<polyline points="322.54,366.8 322.54,356.4" style="fill:none;stroke:black;stroke-width:0.5"/>
<polyline points="322.54,356.4 318.38,356.4" style="fill:none;stroke:black;stroke-width:0.5"/>
<polyline points="318.38,356.4 318.38,346" style="fill:none;stroke:black;stroke-width:0.5"/>
<polyline points="318.38,346 322.54,346" style="fill:none;stroke:black;stroke-width:0.5"/>
<polyline points="322.54,346 322.54,335.6" style="fill:none;stroke:black;stroke-width:0.5"/>
<polyline points="322.54,335.6 318.38,335.6" style="fill:none;stroke:black;stroke-width:0.5"/>
<polyline points="318.38,335.6 318.38,325.21" style="fill:none;stroke:black;stroke-width:0.5"/>
<polyline points="318.38,325.21 322.54,325.21" style="fill:none;stroke:black;stroke-width:0.5"/>
<polyline points="322.54,325.21 322.54,314.81" style="fill:none;stroke:black;stroke-width:0.5"/>
<polyline points="322.54,314.81 306.94,314.81" style="fill:none;stroke:black;stroke-width:0.5"/>
<polyline points="306.94,314.81 306.94,318.97" style="fill:none;stroke:black;stroke-width:0.5"/>
<polyline points="306.94,318.97 296.54,318.97" style="fill:none;stroke:black;stroke-width:0.5"/>
<polyline points="296.54,318.97 296.54,314.81" style="fill:none;stroke:black;stroke-width:0.5"/>
<polyline points="296.54,314.81 286.14,314.81" style="fill:none;stroke:black;stroke-width:0.5"/>
<polyline points="286.14,314.81 286.14,318.97" style="fill:none;stroke:black;stroke-width:0.5"/>
<polyline points="286.14,318.97 275.75,318.97" style="fill:none;stroke:black;stroke-width:0.5"/>
<polyline points="275.75,318.97 275.75,314.81" style="fill:none;stroke:black;stroke-width:0.5"/>
<polyline points="275.75,314.81 265.35,314.81" style="fill:none;stroke:black;stroke-width:0.5"/>
<polyline points="265.35,314.81 265.35,318.97" style="fill:none;stroke:black;stroke-width:0.5"/>
<polyline points="265.35,318.97 254.95,318.97" style="fill:none;stroke:black;stroke-width:0.5"/>
<polyline points="254.95,318.97 254.95,314.81" style="fill:none;stroke:black;stroke-width:0.5"/>
<polyline points="254.95,314.81 244.55,314.81" style="fill:none;stroke:black;stroke-width:0.5"/>
<polyline points="244.55,314.81 244.55,318.97" style="fill:none;stroke:black;stroke-width:0.5"/>
<polyline points="244.55,318.97 234.15,318.97" style="fill:none;stroke:black;stroke-width:0.5"/>
<polyline points="234.15,318.97 234.15,314.81" style="fill:none;stroke:black;stroke-width:0.5"/>
<polyline points="234.15,314.81 223.76,314.81" style="fill:none;stroke:black;stroke-width:0.5"/>
<polyline points="223.76,314.81 223.76,318.97" style="fill:none;stroke:black;stroke-width:0.5"/>
<polyline points="223.76,318.97 213.36,318.97" style="fill:none;stroke:black;stroke-width:0.5"/>
<polyline points="213.36,318.97 213.36,314.81" style="fill:none;stroke:black;stroke-width:0.5"/>
<polyline points="213.36,314.81 202.96,314.81" style="fill:none;stroke:black;stroke-width:0.5"/>
<polyline points="202.96,314.81 202.96,318.97" style="fill:none;stroke:black;stroke-width:0.5"/>
<polyline points="202.96,318.97 192.56,318.97" style="fill:none;stroke:black;stroke-width:0.5"/>
<polyline points="192.56,318.97 192.56,314.81" style="fill:none;stroke:black;stroke-width:0.5"/>
<polyline points="192.56,314.81 182.16,314.81" style="fill:none;stroke:black;stroke-width:0.5"/>
<polyline points="182.16,314.81 182.16,318.97" style="fill:none;stroke:black;stroke-width:0.5"/>
<polyline points="182.16,318.97 171.77,318.97" style="fill:none;stroke:black;stroke-width:0.5"/>
<polyline points="171.77,318.97 171.77,314.81" style="fill:none;stroke:black;stroke-width:0.5"/>
<polyline points="171.77,314.81 161.37,314.81" style="fill:none;stroke:black;stroke-width:0.5"/>
<polyline points="161.37,314.81 156.17,314.81" style="fill:none;stroke:black;stroke-width:0.5"/>
<polyline points="332.93,314.81 332.93,325.21" style="fill:none;stroke:black;stroke-width:0.5"/>
<polyline points="332.93,325.21 328.78,325.21" style="fill:none;stroke:black;stroke-width:0.5"/>
<polyline points="328.78,325.21 328.78,335.6" style="fill:none;stroke:black;stroke-width:0.5"/>
<polyline points="328.78,335.6 332.93,335.6" style="fill:none;stroke:black;stroke-width:0.5"/>
<polyline points="332.93,335.6 332.93,346" style="fill:none;stroke:black;stroke-width:0.5"/>
<polyline points="332.93,346 328.78,346" style="fill:none;stroke:black;stroke-width:0.5"/>
<polyline points="328.78,346 328.78,356.4" style="fill:none;stroke:black;stroke-width:0.5"/>
<polyline points="328.78,356.4 332.93,356.4" style="fill:none;stroke:black;stroke-width:0.5"/>
<polyline points="332.93,356.4 332.93,366.8" style="fill:none;stroke:black;stroke-width:0.5"/>
<polyline points="332.93,366.8 344.37,366.8" style="fill:none;stroke:black;stroke-width:0.5"/>
<polyline points="344.37,366.8 344.37,362.64" style="fill:none;stroke:black;stroke-width:0.5"/>
<polyline points="344.37,362.64 354.77,362.64" style="fill:none;stroke:black;stroke-width:0.5"/>
<polyline points="354.77,362.64 354.77,366.8" style="fill:none;stroke:black;stroke-width:0.5"/>
<polyline points="354.77,366.8 365.17,366.8" style="fill:none;stroke:black;stroke-width:0.5"/>
<polyline points="365.17,366.8 365.17,362.64" style="fill:none;stroke:black;stroke-width:0.5"/>
<polyline points="365.17,362.64 375.57,362.64" style="fill:none;stroke:black;stroke-width:0.5"/>
<polyline points="375.57,362.64 375.57,366.8" style="fill:none;stroke:black;stroke-width:0.5"/>
<polyline points="375.57,366.8 385.96,366.8" style="fill:none;stroke:black;stroke-width:0.5"/>
<polyline points="385.96,366.8 385.96,362.64" style="fill:none;stroke:black;stroke-width:0.5"/>
<polyline points="385.96,362.64 396.36,362.64" style="fill:none;stroke:black;stroke-width:0.5"/>
<polyline points="396.36,362.64 396.36,366.8" style="fill:none;stroke:black;stroke-width:0.5"/>
<polyline points="396.36,366.8 406.76,366.8" style="fill:none;stroke:black;stroke-width:0.5"/>
<polyline points="406.76,366.8 406.76,362.64" style="fill:none;stroke:black;stroke-width:0.5"/>
<polyline points="406.76,362.64 417.16,362.64" style="fill:none;stroke:black;stroke-width:0.5"/>
<polyline points="417.16,362.64 417.16,366.8" style="fill:none;stroke:black;stroke-width:0.5"/>
<polyline points="417.16,366.8 427.56,366.8" style="fill:none;stroke:black;stroke-width:0.5"/>
<polyline points="427.56,366.8 427.56,362.64" style="fill:none;stroke:black;stroke-width:0.5"/>
<polyline points="427.56,362.64 437.95,362.64" style="fill:none;stroke:black;stroke-width:0.5"/>
<polyline points="437.95,362.64 437.95,366.8" style="fill:none;stroke:black;stroke-width:0.5"/>
<polyline points="437.95,366.8 448.35,366.8" style="fill:none;stroke:black;stroke-width:0.5"/>
<polyline points="448.35,366.8 449.39,366.8" style="fill:none;stroke:black;stroke-width:0.5"/>
<polyline points="449.39,366.8 449.39,356.4" style="fill:none;stroke:black;stroke-width:0.5"/>
<polyline points="449.39,356.4 453.55,356.4" style="fill:none;stroke:black;stroke-width:0.5"/>
<polyline points="453.55,356.4 453.55,346" style="fill:none;stroke:black;stroke-width:0.5"/>
<polyline points="453.55,346 449.39,346" style="fill:none;stroke:black;stroke-width:0.5"/>
<polyline points="449.39,346 449.39,335.6" style="fill:none;stroke:black;stroke-width:0.5"/>
<polyline points="449.39,335.6 453.55,335.6" style="fill:none;stroke:black;stroke-width:0.5"/>
<polyline points="453.55,335.6 453.55,325.21" style="fill:none;stroke:black;stroke-width:0.5"/>
<polyline points="453.55,325.21 449.39,325.21" style="fill:none;stroke:black;stroke-width:0.5"/>
<polyline points="449.39,325.21 449.39,314.81" style="fill:none;stroke:black;stroke-width:0.5"/>
<polyline points="449.39,314.81 437.95,314.81" style="fill:none;stroke:black;stroke-width:0.5"/>
<polyline points="437.95,314.81 437.95,318.97" style="fill:none;stroke:black;stroke-width:0.5"/>
<polyline points="437.95,318.97 427.56,318.97" style="fill:none;stroke:black;stroke-width:0.5"/>
<polyline points="427.56,318.97 427.56,314.81" style="fill:none;stroke:black;stroke-width:0.5"/>
<polyline points="427.56,314.81 417.16,314.81" style="fill:none;stroke:black;stroke-width:0.5"/>
<polyline points="417.16,314.81 417.16,318.97" style="fill:none;stroke:black;stroke-width:0.5"/>
<polyline points="417.16,318.97 406.76,318.97" style="fill:none;stroke:black;stroke-width:0.5"/>
<polyline points="406.76,318.97 406.76,314.81" style="fill:none;stroke:black;stroke-width:0.5"/>
<polyline points="406.76,314.81 396.36,314.81" style="fill:none;stroke:black;stroke-width:0.5"/>
<polyline points="396.36,314.81 396.36,318.97" style="fill:none;stroke:black;stroke-width:0.5"/>
<polyline points="396.36,318.97 385.96,318.97" style="fill:none;stroke:black;stroke-width:0.5"/>
<polyline points="385.96,318.97 385.96,314.81" style="fill:none;stroke:black;stroke-width:0.5"/>
<polyline points="385.96,314.81 375.57,314.81" style="fill:none;stroke:black;stroke-width:0.5"/>
<polyline points="375.57,314.81 375.57,318.97" style="fill:none;stroke:black;stroke-width:0.5"/>
<polyline points="375.57,318.97 365.17,318.97" style="fill:none;stroke:black;stroke-width:0.5"/>
<polyline points="365.17,318.97 365.17,314.81" style="fill:none;stroke:black;stroke-width:0.5"/>
<polyline points="365.17,314.81 354.77,314.81" style="fill:none;stroke:black;stroke-width:0.5"/>
<polyline points="354.77,314.81 354.77,318.97" style="fill:none;stroke:black;stroke-width:0.5"/>
<polyline points="354.77,318.97 344.37,318.97" style="fill:none;stroke:black;stroke-width:0.5"/>
<polyline points="344.37,318.97 344.37,314.81" style="fill:none;stroke:black;stroke-width:0.5"/>
<polyline points="344.37,314.81 333.97,314.81" style="fill:none;stroke:black;stroke-width:0.5"/>
<polyline points="333.97,314.81 332.93,314.81" style="fill:none;stroke:black;stroke-width:0.5"/>
<polyline points="463.95,173.39 463.95,184.83" style="fill:none;stroke:black;stroke-width:0.5"/>
<polyline points="463.95,184.83 459.79,184.83" style="fill:none;stroke:black;stroke-width:0.5"/>
<polyline points="459.79,184.83 459.79,195.23" style="fill:none;stroke:black;stroke-width:0.5"/>
<polyline points="459.79,195.23 463.95,195.23" style="fill:none;stroke:black;stroke-width:0.5"/>
<polyline points="463.95,195.23 463.95,205.63" style="fill:none;stroke:black;stroke-width:0.5"/>
<polyline points="463.95,205.63 459.79,205.63" style="fill:none;stroke:black;stroke-width:0.5"/>
<polyline points="459.79,205.63 459.79,216.03" style="fill:none;stroke:black;stroke-width:0.5"/>
<polyline points="459.79,216.03 463.95,216.03" style="fill:none;stroke:black;stroke-width:0.5"/>
<polyline points="463.95,216.03 463.95,226.42" style="fill:none;stroke:black;stroke-width:0.5"/>
<polyline points="463.95,226.42 459.79,226.42" style="fill:none;stroke:black;stroke-width:0.5"/>
<polyline points="459.79,226.42 459.79,236.82" style="fill:none;stroke:black;stroke-width:0.5"/>
<polyline points="459.79,236.82 463.95,236.82" style="fill:none;stroke:black;stroke-width:0.5"/>
<polyline points="463.95,236.82 463.95,247.22" style="fill:none;stroke:black;stroke-width:0.5"/>
<polyline points="463.95,247.22 459.79,247.22" style="fill:none;stroke:black;stroke-width:0.5"/>
<polyline points="459.79,247.22 459.79,257.62" style="fill:none;stroke:black;stroke-width:0.5"/>
<polyline points="459.79,257.62 463.95,257.62" style="fill:none;stroke:black;stroke-width:0.5"/>
<polyline points="463.95,257.62 463.95,268.02" style="fill:none;stroke:black;stroke-width:0.5"/>
<polyline points="463.95,268.02 459.79,268.02" style="fill:none;stroke:black;stroke-width:0.5"/>
<polyline points="459.79,268.02 459.79,278.41" style="fill:none;stroke:black;stroke-width:0.5"/>
<polyline points="459.79,278.41 463.95,278.41" style="fill:none;stroke:black;stroke-width:0.5"/>
<polyline points="463.95,278.41 463.95,288.81" style="fill:none;stroke:black;stroke-width:0.5"/>
<polyline points="463.95,288.81 463.95,289.85" style="fill:none;stroke:black;stroke-width:0.5"/>
<polyline points="463.95,289.85 475.39,289.85" style="fill:none;stroke:black;stroke-width:0.5"/>
<polyline points="475.39,289.85 475.39,294.01" style="fill:none;stroke:black;stroke-width:0.5"/>
<polyline points="475.39,294.01 485.78,294.01" style="fill:none;stroke:black;stroke-width:0.5"/>
<polyline points="485.78,294.01 485.78,289.85" style="fill:none;stroke:black;stroke-width:0.5"/>
<polyline points="485.78,289.85 496.18,289.85" style="fill:none;stroke:black;stroke-width:0.5"/>
<polyline points="496.18,289.85 496.18,294.01" style="fill:none;stroke:black;stroke-width:0.5"/>
<polyline points="496.18,294.01 506.58,294.01" style="fill:none;stroke:black;stroke-width:0.5"/>
<polyline points="506.58,294.01 506.58,289.85" style="fill:none;stroke:black;stroke-width:0.5"/>
<polyline points="506.58,289.85 516.98,289.85" style="fill:none;stroke:black;stroke-width:0.5"/>
<polyline points="516.98,289.85 516.98,294.01" style="fill:none;stroke:black;stroke-width:0.5"/>
<polyline points="516.98,294.01 527.38,294.01" style="fill:none;stroke:black;stroke-width:0.5"/>
<polyline points="527.38,294.01 527.38,289.85" style="fill:none;stroke:black;stroke-width:0.5"/>
<polyline points="527.38,289.85 537.77,289.85" style="fill:none;stroke:black;stroke-width:0.5"/>
<polyline points="537.77,289.85 537.77,294.01" style="fill:none;stroke:black;stroke-width:0.5"/>
<polyline points="537.77,294.01 548.17,294.01" style="fill:none;stroke:black;stroke-width:0.5"/>
<polyline points="548.17,294.01 548.17,289.85" style="fill:none;stroke:black;stroke-width:0.5"/>
<polyline points="548.17,289.85 558.57,289.85" style="fill:none;stroke:black;stroke-width:0.5"/>
<polyline points="558.57,289.85 558.57,294.01" style="fill:none;stroke:black;stroke-width:0.5"/>
<polyline points="558.57,294.01 568.97,294.01" style="fill:none;stroke:black;stroke-width:0.5"/>
<polyline points="568.97,294.01 568.97,289.85" style="fill:none;stroke:black;stroke-width:0.5"/>
<polyline points="568.97,289.85 579.37,289.85" style="fill:none;stroke:black;stroke-width:0.5"/>
<polyline points="579.37,289.85 579.37,294.01" style="fill:none;stroke:black;stroke-width:0.5"/>
<polyline points="579.37,294.01 589.76,294.01" style="fill:none;stroke:black;stroke-width:0.5"/>
<polyline points="589.76,294.01 589.76,289.85" style="fill:none;stroke:black;stroke-width:0.5"/>
<polyline points="589.76,289.85 600.16,289.85" style="fill:none;stroke:black;stroke-width:0.5"/>
<polyline points="600.16,289.85 600.16,294.01" style="fill:none;stroke:black;stroke-width:0.5"/>
<polyline points="600.16,294.01 610.56,294.01" style="fill:none;stroke:black;stroke-width:0.5"/>
<polyline points="610.56,294.01 610.56,289.85" style="fill:none;stroke:black;stroke-width:0.5"/>
<polyline points="610.56,289.85 620.96,289.85" style="fill:none;stroke:black;stroke-width:0.5"/>
<polyline points="620.96,289.85 622,289.85" style="fill:none;stroke:black;stroke-width:0.5"/>
<polyline points="622,289.85 622,278.41" style="fill:none;stroke:black;stroke-width:0.5"/>
<polyline points="622,278.41 626.16,278.41" style="fill:none;stroke:black;stroke-width:0.5"/>
<polyline points="626.16,278.41 626.16,268.02" style="fill:none;stroke:black;stroke-width:0.5"/>
<polyline points="626.16,268.02 622,268.02" style="fill:none;stroke:black;stroke-width:0.5"/>
<polyline points="622,268.02 622,257.62" style="fill:none;stroke:black;stroke-width:0.5"/>
<polyline points="622,257.62 626.16,257.62" style="fill:none;stroke:black;stroke-width:0.5"/>
<polyline points="626.16,257.62 626.16,247.22" style="fill:none;stroke:black;stroke-width:0.5"/>
<polyline points="626.16,247.22 622,247.22" style="fill:none;stroke:black;stroke-width:0.5"/>
<polyline points="622,247.22 622,236.82" style="fill:none;stroke:black;stroke-width:0.5"/>
<polyline points="622,236.82 626.16,236.82" style="fill:none;stroke:black;stroke-width:0.5"/>
<polyline points="626.16,236.82 626.16,226.42" style="fill:none;stroke:black;stroke-width:0.5"/>
<polyline points="626.16,226.42 622,226.42" style="fill:none;stroke:black;stroke-width:0.5"/>
<polyline points="622,226.42 622,216.03" style="fill:none;stroke:black;stroke-width:0.5"/>
<polyline points="622,216.03 626.16,216.03" style="fill:none;stroke:black;stroke-width:0.5"/>
<polyline points="626.16,216.03 626.16,205.63" style="fill:none;stroke:black;stroke-width:0.5"/>
<polyline points="626.16,205.63 622,205.63" style="fill:none;stroke:black;stroke-width:0.5"/>
<polyline points="622,205.63 622,195.23" style="fill:none;stroke:black;stroke-width:0.5"/>
<polyline points="622,195.23 626.16,195.23" style="fill:none;stroke:black;stroke-width:0.5"/>
<polyline points="626.16,195.23 626.16,184.83" style="fill:none;stroke:black;stroke-width:0.5"/>
<polyline points="626.16,184.83 622,184.83" style="fill:none;stroke:black;stroke-width:0.5"/>
<polyline points="622,184.83 622,174.43" style="fill:none;stroke:black;stroke-width:0.5"/>
<polyline points="622,174.43 622,173.39" style="fill:none;stroke:black;stroke-width:0.5"/>
<polyline points="622,173.39 610.56,173.39" style="fill:none;stroke:black;stroke-width:0.5"/>
<polyline points="610.56,173.39 610.56,169.24" style="fill:none;stroke:black;stroke-width:0.5"/>
<polyline points="610.56,169.24 600.16,169.24" style="fill:none;stroke:black;stroke-width:0.5"/>
<polyline points="600.16,169.24 600.16,173.39" style="fill:none;stroke:black;stroke-width:0.5"/>
<polyline points="600.16,173.39 589.76,173.39" style="fill:none;stroke:black;stroke-width:0.5"/>
<polyline points="589.76,173.39 589.76,169.24" style="fill:none;stroke:black;stroke-width:0.5"/>
<polyline points="589.76,169.24 579.37,169.24" style="fill:none;stroke:black;stroke-width:0.5"/>
<polyline points="579.37,169.24 579.37,173.39" style="fill:none;stroke:black;stroke-width:0.5"/>
<polyline points="579.37,173.39 568.97,173.39" style="fill:none;stroke:black;stroke-width:0.5"/>
<polyline points="568.97,173.39 568.97,169.24" style="fill:none;stroke:black;stroke-width:0.5"/>
<polyline points="568.97,169.24 558.57,169.24" style="fill:none;stroke:black;stroke-width:0.5"/>
<polyline points="558.57,169.24 558.57,173.39" style="fill:none;stroke:black;stroke-width:0.5"/>
<polyline points="558.57,173.39 548.17,173.39" style="fill:none;stroke:black;stroke-width:0.5"/>
<polyline points="548.17,173.39 548.17,169.24" style="fill:none;stroke:black;stroke-width:0.5"/>
<polyline points="548.17,169.24 537.77,169.24" style="fill:none;stroke:black;stroke-width:0.5"/>
<polyline points="537.77,169.24 537.77,173.39" style="fill:none;stroke:black;stroke-width:0.5"/>
<polyline points="537.77,173.39 527.38,173.39" style="fill:none;stroke:black;stroke-width:0.5"/>
<polyline points="527.38,173.39 527.38,169.24" style="fill:none;stroke:black;stroke-width:0.5"/>
<polyline points="527.38,169.24 516.98,169.24" style="fill:none;stroke:black;stroke-width:0.5"/>
<polyline points="516.98,169.24 516.98,173.39" style="fill:none;stroke:black;stroke-width:0.5"/>
<polyline points="516.98,173.39 506.58,173.39" style="fill:none;stroke:black;stroke-width:0.5"/>
<polyline points="506.58,173.39 506.58,169.24" style="fill:none;stroke:black;stroke-width:0.5"/>
<polyline points="506.58,169.24 496.18,169.24" style="fill:none;stroke:black;stroke-width:0.5"/>
<polyline points="496.18,169.24 496.18,173.39" style="fill:none;stroke:black;stroke-width:0.5"/>
<polyline points="496.18,173.39 485.78,173.39" style="fill:none;stroke:black;stroke-width:0.5"/>
<polyline points="485.78,173.39 485.78,169.24" style="fill:none;stroke:black;stroke-width:0.5"/>
<polyline points="485.78,169.24 475.39,169.24" style="fill:none;stroke:black;stroke-width:0.5"/>
<polyline points="475.39,169.24 475.39,173.39" style="fill:none;stroke:black;stroke-width:0.5"/>
<polyline points="475.39,173.39 464.99,173.39" style="fill:none;stroke:black;stroke-width:0.5"/>
<polyline points="464.99,173.39 463.95,173.39" style="fill:none;stroke:black;stroke-width:0.5"/>
<polyline points="579.37,226.42 583.53,226.42 583.53,236.82 579.37,236.82 579.37,226.42" style="fill:none;stroke:black;stroke-width:0.5"/>
<polyline points="156.17,292.98 405.72,293.47 405.72,279.96 414.04,279.96 414.04,275.8 405.72,275.8 405.72,262.28 156.17,262.28 156.17,292.98" style="fill:none;stroke:black;stroke-width:0.5"/>
<polyline points="354.77,325.21 427.56,325.21 427.56,356.4 354.77,356.4 354.77,325.21" style="fill:none;stroke:black;stroke-width:0.5"/>
<polyline points="488.16,247.22 538.07,247.22 538.07,276.62 488.16,276.62 488.16,247.22" style="fill:none;stroke:black;stroke-width:0.5"/>
<polyline points="181.52,277.88 181.71,276.47 182.27,275.17 183.17,274.08 184.32,273.26 185.66,272.79 187.07,272.69 188.46,272.98 189.71,273.63 190.75,274.59 191.49,275.8 191.87,277.17 191.87,278.58 191.49,279.95 190.75,281.16 189.71,282.12 188.46,282.77 187.07,283.06 185.66,282.97 184.32,282.49 183.17,281.68 182.27,280.58 181.71,279.28 181.52,277.88" style="fill:none;stroke:black;stroke-width:0.5"/>
<polyline points="245.83,277.63 246.02,276.23 246.58,274.93 247.48,273.83 248.63,273.01 249.97,272.54 251.38,272.44 252.77,272.73 254.02,273.38 255.06,274.35 255.79,275.56 256.18,276.92 256.18,278.34 255.79,279.7 255.06,280.91 254.02,281.88 252.77,282.53 251.38,282.82 249.97,282.72 248.63,282.25 247.48,281.43 246.58,280.33 246.02,279.03 245.83,277.63" style="fill:none;stroke:black;stroke-width:0.5"/>
<polyline points="310.94,278.91 311.14,277.51 311.7,276.21 312.59,275.11 313.75,274.3 315.09,273.82 316.5,273.73 317.88,274.01 319.14,274.67 320.18,275.63 320.91,276.84 321.29,278.21 321.29,279.62 320.91,280.98 320.18,282.19 319.14,283.16 317.88,283.81 316.5,284.1 315.09,284 313.75,283.53 312.59,282.71 311.7,281.61 311.14,280.32 310.94,278.91" style="fill:none;stroke:black;stroke-width:0.5"/>
</svg>
