<?xml version="1.0" encoding="UTF-8"?>
<!DOCTYPE svg PUBLIC "-//W3C//DTD SVG 1.1//EN" "http://www.w3.org/Graphics/SVG/1.1/DTD/svg11.dtd">
<!-- Creator: CorelDRAW -->
<svg xmlns="http://www.w3.org/2000/svg" xml:space="preserve" width="210mm" height="297mm" style="shape-rendering:geometricPrecision; text-rendering:geometricPrecision; image-rendering:optimizeQuality; fill-rule:evenodd; clip-rule:evenodd"
viewBox="0 0 210 297"
 xmlns:xlink="http://www.w3.org/1999/xlink"
 version="1.1">
 <defs>
  <style type="text/css">
   <![CDATA[
    .str0 {stroke:red;stroke-width:0.1;stroke-linecap:round}
    .str1 {stroke:#1F1A17;stroke-width:0.2}
    .fil0 {fill:none}
   ]]>
  </style>
 </defs>
 <g id="图层_x0020_1">
  <metadata id="CorelCorpID_0Corel-Layer"/>
  <polygon id="front_outsideCutPath" class="fil0 str0" points="137.5,119.5 137.5,123.406 140,123.406 140,130.594 137.5,130.594 137.5,134.5 144.844,134.5 144.844,132 152.031,132 152.031,134.5 159.219,134.5 159.219,132 166.406,132 166.406,134.5 173.594,134.5 173.594,132 180.781,132 180.781,134.5 187.969,134.5 187.969,132 195.156,132 195.156,134.5 202.5,134.5 202.5,130.594 200,130.594 200,123.406 202.5,123.406 202.5,119.5 195.156,119.5 195.156,122 187.969,122 187.969,119.5 180.781,119.5 180.781,122 173.594,122 173.594,119.5 166.406,119.5 166.406,122 159.219,122 159.219,119.5 152.031,119.5 152.031,122 144.844,122 144.844,119.5 " vector-effect="non-scaling-stroke"/>
  <polygon id="left_outsideCutPath" class="fil0 str0" points="42.5,149.5 42.5,153.406 40,153.406 40,160.594 42.5,160.594 42.5,164.5 47.656,164.5 47.656,162 54.844,162 54.844,164.5 62.031,164.5 62.031,162 69.219,162 69.219,164.5 76.406,164.5 76.406,162 83.594,162 83.594,164.5 90.781,164.5 90.781,162 97.969,162 97.969,164.5 105.156,164.5 105.156,162 112.344,162 112.344,164.5 117.5,164.5 117.5,160.594 120,160.594 120,153.406 117.5,153.406 117.5,149.5 112.344,149.5 112.344,152 105.156,152 105.156,149.5 97.969,149.5 97.969,152 90.781,152 90.781,149.5 83.594,149.5 83.594,152 76.406,152 76.406,149.5 69.219,149.5 69.219,152 62.031,152 62.031,149.5 54.844,149.5 54.844,152 47.656,152 47.656,149.5 " vector-effect="non-scaling-stroke"/>
  <polygon id="top_outsideCutPath" class="fil0 str0" points="140,19.5 140,24.656 137.5,24.656 137.5,31.844 140,31.844 140,39.031 137.5,39.031 137.5,46.219 140,46.219 140,53.406 137.5,53.406 137.5,60.594 140,60.594 140,67.781 137.5,67.781 137.5,74.969 140,74.969 140,82.1561 137.5,82.1561 137.5,89.3441 140,89.3441 140,94.5001 144.844,94.5001 144.844,97.0001 152.031,97.0001 152.031,94.5001 159.219,94.5001 159.219,97.0001 166.406,97.0001 166.406,94.5001 173.594,94.5001 173.594,97.0001 180.781,97.0001 180.781,94.5001 187.969,94.5001 187.969,97.0001 195.156,97.0001 195.156,94.5001 200,94.5001 200,89.3441 202.5,89.3441 202.5,82.1561 200,82.1561 200,74.969 202.5,74.969 202.5,67.781 200,67.781 200,60.594 202.5,60.594 202.5,53.406 200,53.406 200,46.219 202.5,46.219 202.5,39.031 200,39.031 200,31.844 202.5,31.844 202.5,24.656 200,24.656 200,19.5 195.156,19.5 195.156,17 187.969,17 187.969,19.5 180.781,19.5 180.781,17 173.594,17 173.594,19.5 166.406,19.5 166.406,17 159.219,17 159.219,19.5 152.031,19.5 152.031,17 144.844,17 144.844,19.5 " vector-effect="non-scaling-stroke"/>
  <path id="back_outsideCutPath" class="fil0 str0" d="M99.4999 132l5.6561 0 0 2.5 7.344 0 0 -3.906 -2.5 0 0 -7.188 2.5 0 0 -3.906 -7.344 0 0 2.5 -7.187 0 0 -2.5 -7.1881 0 0 2.5 -7.1869 0 0 -2.5 -7.188 0 0 2.5 -7.1869 0 0 -2.5 -7.1881 0 0 2.5 -7.187 0 0 -2.5 -7.344 0 0 3.906 2.5 0 0 7.188 -2.5 0 0 3.906 7.344 0 0 -2.5 3.656 0m13 0l4.906 0 0 2.5 7.188 0 0 -2.5 0.9059 0" vector-effect="non-scaling-stroke"/>
  <polygon id="right_outsideCutPath" class="fil0 str0" points="42.5,179.5 42.5,183.406 40,183.406 40,190.594 42.5,190.594 42.5,194.5 47.656,194.5 47.656,192 54.844,192 54.844,194.5 62.031,194.5 62.031,192 69.219,192 69.219,194.5 76.406,194.5 76.406,192 83.594,192 83.594,194.5 90.781,194.5 90.781,192 97.969,192 97.969,194.5 105.156,194.5 105.156,192 112.344,192 112.344,194.5 117.5,194.5 117.5,190.594 120,190.594 120,183.406 117.5,183.406 117.5,179.5 112.344,179.5 112.344,182 105.156,182 105.156,179.5 97.969,179.5 97.969,182 90.781,182 90.781,179.5 83.594,179.5 83.594,182 76.406,182 76.406,179.5 69.219,179.5 69.219,182 62.031,182 62.031,179.5 54.844,179.5 54.844,182 47.656,182 47.656,179.5 " vector-effect="non-scaling-stroke"/>
  <path id="bottom_outsideCutPath" class="fil0 str0" d="M85.5 17l-1.906 0 0 2.5 -7.188 0 0 -2.5 -4.906 0m-13 0l-3.656 0 0 2.5 -4.844 0 0 5.156 -2.5 0 0 7.188 2.5 0 0 7.187 -2.5 0 0 7.188 2.5 0 0 7.1871 -2.5 0 0 7.1879 2.5 0 0 7.1871 -2.5 0 0 7.188 2.5 0 0 7.1869 -2.5 0 0 7.1881 2.5 0 0 5.156 4.844 0 0 2.4999 7.187 0 0 -2.4999 7.1881 0 0 2.4999 7.1869 0 0 -2.4999 7.188 0 0 2.4999 7.1869 0 0 -2.4999 7.1881 0 0 2.4999 7.187 0 0 -2.4999 4.844 0 0 -5.156 2.5 0 0 -7.1881 -2.5 0 0 -7.1869 2.5 0 0 -7.188 -2.5 0 0 -7.1871 2.5 0 0 -7.1879 -2.5 0 0 -7.1871 2.5 0 0 -7.188 -2.5 0 0 -7.187 2.5 0 0 -7.188 -2.5 0 0 -5.156 -4.844 0 0 -2.5 -4.656 0" vector-effect="non-scaling-stroke"/>
  <path class="fil0 str1" d="M100.5 31.672l0 0.328 -15 0 0 -15m15 0l0 7.672"/>
  <polyline class="fil0 str1" points="100.5,24.672 107.5,24.672 107.5,31.672 100.5,31.672 "/>
  <polyline class="fil0 str1" points="71.5,17 71.5,32 58.5,32 58.5,17 "/>
  <polyline class="fil0 str1" points="103.5,37.084 103.5,37 106.5,37 106.5,89 103.5,89 103.5,44.084 "/>
  <polyline class="fil0 str1" points="103.5,44.084 96.5015,44.084 96.5015,37.084 103.501,37.084 "/>
  <rect class="fil0 str1" x="53.5" y="47" width="3" height="40"/>
  <rect class="fil0 str1" x="74.5" y="87.5" width="7" height="5"/>
  <polyline class="fil0 str1" points="84.4999,132 84.4999,124.5 99.4999,124.5 99.4999,132 "/>
  <polyline class="fil0 str1" points="58.5,132 58.5,124.5 71.5,124.5 71.5,132 "/>
  <polygon id="front_outsideCutPath_0" class="fil0 str0" points="62.5,217 62.5,224.5 65,224.5 65,229.5 62.5,229.5 62.5,234.5 65,234.5 65,239.5 62.5,239.5 62.5,244.5 65,244.5 65,249.5 62.5,249.5 62.5,254.5 65,254.5 65,259.5 62.5,259.5 62.5,264.5 65,264.5 65,269.5 62.5,269.5 62.5,274.5 62.5,277 67.5,277 67.5,274.5 72.5,274.5 72.5,277 77.5,277 77.5,269.5 75,269.5 75,264.5 77.5,264.5 77.5,259.5 75,259.5 75,254.5 77.5,254.5 77.5,249.5 75,249.5 75,244.5 77.5,244.5 77.5,239.5 75,239.5 75,234.5 77.5,234.5 77.5,229.5 75,229.5 75,224.5 77.5,224.5 77.5,219.5 77.5,217 72.5,217 72.5,219.5 67.5,219.5 67.5,217 " vector-effect="non-scaling-stroke"/>
  <polygon id="left_outsideCutPath_1" class="fil0 str0" points="105,217 105,224.5 102.5,224.5 102.5,229.5 105,229.5 105,234.5 102.5,234.5 102.5,239.5 105,239.5 105,244.5 102.5,244.5 102.5,249.5 105,249.5 105,254.5 102.5,254.5 102.5,259.5 105,259.5 105,264.5 102.5,264.5 102.5,269.5 105,269.5 105,274.5 105,277 107.5,277 107.5,274.5 112.5,274.5 112.5,277 115,277 115,269.5 117.5,269.5 117.5,264.5 115,264.5 115,259.5 117.5,259.5 117.5,254.5 115,254.5 115,249.5 117.5,249.5 117.5,244.5 115,244.5 115,239.5 117.5,239.5 117.5,234.5 115,234.5 115,229.5 117.5,229.5 117.5,224.5 115,224.5 115,219.5 115,217 112.5,217 112.5,219.5 107.5,219.5 107.5,217 " vector-effect="non-scaling-stroke"/>
  <path id="top_outsideCutPath_2" class="fil0 str0" d="M72.5 64.5l2.5 0 0 2.5 2.5 0 0 2.5m5 0l0 -2.5 2.5 0 0 -2.5 2.5 0m0 -4.9999l-2.5 0 0 -2.5 -2.5 0 0 -2.5001m-5 0l0 1.3474 0 1.1527 -2.5 0 0 2.5 -2.5 0" vector-effect="non-scaling-stroke"/>
  <polygon id="back_outsideCutPath_3" class="fil0 str0" points="42.5,217 42.5,224.5 45,224.5 45,229.5 42.5,229.5 42.5,234.5 45,234.5 45,239.5 42.5,239.5 42.5,244.5 45,244.5 45,249.5 42.5,249.5 42.5,254.5 45,254.5 45,259.5 42.5,259.5 42.5,264.5 45,264.5 45,269.5 42.5,269.5 42.5,274.5 42.5,277 47.5,277 47.5,274.5 52.5,274.5 52.5,277 57.5,277 57.5,269.5 55,269.5 55,264.5 57.5,264.5 57.5,259.5 55,259.5 55,254.5 57.5,254.5 57.5,249.5 55,249.5 55,244.5 57.5,244.5 57.5,239.5 55,239.5 55,234.5 57.5,234.5 57.5,229.5 55,229.5 55,224.5 57.5,224.5 57.5,219.5 57.5,217 52.5,217 52.5,219.5 47.5,219.5 47.5,217 " vector-effect="non-scaling-stroke"/>
  <polygon id="right_outsideCutPath_4" class="fil0 str0" points="85,217 85,224.5 82.5,224.5 82.5,229.5 85,229.5 85,234.5 82.5,234.5 82.5,239.5 85,239.5 85,244.5 82.5,244.5 82.5,249.5 85,249.5 85,254.5 82.5,254.5 82.5,259.5 85,259.5 85,264.5 82.5,264.5 82.5,269.5 85,269.5 85,274.5 85,277 87.5,277 87.5,274.5 92.5,274.5 92.5,277 95,277 95,269.5 97.5,269.5 97.5,264.5 95,264.5 95,259.5 97.5,259.5 97.5,254.5 95,254.5 95,249.5 97.5,249.5 97.5,244.5 95,244.5 95,239.5 97.5,239.5 97.5,234.5 95,234.5 95,229.5 97.5,229.5 97.5,224.5 95,224.5 95,219.5 95,217 92.5,217 92.5,219.5 87.5,219.5 87.5,217 " vector-effect="non-scaling-stroke"/>
  <polygon id="bottom_outsideCutPath_5" class="fil0 str0" points="125,242 125,244.5 122.5,244.5 122.5,249.5 125,249.5 125,252 127.5,252 127.5,254.5 132.5,254.5 132.5,252 135,252 135,249.5 137.5,249.5 137.5,244.5 135,244.5 135,242 132.5,242 132.5,239.5 127.5,239.5 127.5,242 " vector-effect="non-scaling-stroke"/>
  <path class="fil0 str1" d="M72.5 59.5001l0 -5.0001 5 0m5 0l5 0 0 5.0001m0 4.9999l0 5 -5 0m-5 0l-5 0 0 -5"/>
  <circle class="fil0 str1" cx="50" cy="232" r="3.5"/>
  <circle class="fil0 str1" cx="50" cy="247" r="3.5"/>
  <circle class="fil0 str1" cx="50" cy="262" r="3.5"/>
 </g>
</svg>
